<?xml version="1.0" encoding="UTF-8" standalone="no"?>
<!DOCTYPE svg PUBLIC "-//W3C//DTD SVG 1.1//EN"
 "http://www.w3.org/Graphics/SVG/1.1/DTD/svg11.dtd">
<!-- Generated by graphviz version 14.0.0 (20250921.2048)
 -->
<!-- Pages: 1 -->
<svg width="1005pt" height="196pt"
 viewBox="0.00 0.00 1005.00 196.00" xmlns="http://www.w3.org/2000/svg" xmlns:xlink="http://www.w3.org/1999/xlink">
<g id="graph0" class="graph" transform="scale(1 1) rotate(0) translate(4 192)">
<polygon fill="#ffffff" stroke="none" points="-4,4 -4,-192 1000.75,-192 1000.75,4 -4,4"/>
<!-- TPS -->
<g id="node1" class="node">
<title>TPS</title>
<polygon fill="#ffffff" stroke="black" points="180,-156.25 0,-156.25 0,-13.75 180,-13.75 180,-156.25"/>
<polygon fill="none" stroke="black" points="0,-132.5 0,-156.25 180,-156.25 180,-132.5 0,-132.5"/>
<text xml:space="preserve" text-anchor="start" x="76.88" y="-138.95" font-family="arial" font-size="14.00">TPS</text>
<polygon fill="none" stroke="black" points="0,-108.75 0,-132.5 70.25,-132.5 70.25,-108.75 0,-108.75"/>
<text xml:space="preserve" text-anchor="start" x="4" y="-115.2" font-family="arial" font-size="14.00">Connector</text>
<polygon fill="none" stroke="black" points="70.25,-108.75 70.25,-132.5 142,-132.5 142,-108.75 70.25,-108.75"/>
<text xml:space="preserve" text-anchor="start" x="74.25" y="-115.2" font-family="arial" font-size="14.00">3&#45;pin male</text>
<polygon fill="none" stroke="black" points="142,-108.75 142,-132.5 180,-132.5 180,-108.75 142,-108.75"/>
<text xml:space="preserve" text-anchor="start" x="146" y="-115.2" font-family="arial" font-size="14.00">3&#45;pin</text>
<polygon fill="none" stroke="black" points="0,-85 0,-108.75 105,-108.75 105,-85 0,-85"/>
<text xml:space="preserve" text-anchor="start" x="34.12" y="-91.45" font-family="arial" font-size="14.00">5V &#45; A</text>
<polyline fill="none" stroke="black" points="136.5,-108.75 105,-108.75 105,-85 136.5,-85"/>
<text xml:space="preserve" text-anchor="start" x="111" y="-91.45" font-family="arial" font-size="14.00">RD</text>
<polyline fill="none" stroke="black" points="136.5,-85 160.5,-85 160.5,-108.75 136.5,-108.75"/>
<polygon fill="#ff0000" stroke="none" points="144.5,-92.88 144.5,-100.88 152.5,-100.88 152.5,-92.88 144.5,-92.88"/>
<polygon fill="none" stroke="black" points="144.5,-92.88 144.5,-100.88 152.5,-100.88 152.5,-92.88 144.5,-92.88"/>
<polygon fill="none" stroke="black" points="160.5,-85 160.5,-108.75 180,-108.75 180,-85 160.5,-85"/>
<text xml:space="preserve" text-anchor="start" x="166.5" y="-91.45" font-family="arial" font-size="14.00">1</text>
<polygon fill="none" stroke="black" points="0,-61.25 0,-85 105,-85 105,-61.25 0,-61.25"/>
<text xml:space="preserve" text-anchor="start" x="6" y="-67.7" font-family="arial" font-size="14.00">Signal GND &#45; B</text>
<polyline fill="none" stroke="black" points="136.5,-85 105,-85 105,-61.25 136.5,-61.25"/>
<text xml:space="preserve" text-anchor="start" x="111.75" y="-67.7" font-family="arial" font-size="14.00">BK</text>
<polyline fill="none" stroke="black" points="136.5,-61.25 160.5,-61.25 160.5,-85 136.5,-85"/>
<polygon fill="#000000" stroke="none" points="144.5,-69.12 144.5,-77.12 152.5,-77.12 152.5,-69.12 144.5,-69.12"/>
<polygon fill="none" stroke="black" points="144.5,-69.12 144.5,-77.12 152.5,-77.12 152.5,-69.12 144.5,-69.12"/>
<polygon fill="none" stroke="black" points="160.5,-61.25 160.5,-85 180,-85 180,-61.25 160.5,-61.25"/>
<text xml:space="preserve" text-anchor="start" x="166.5" y="-67.7" font-family="arial" font-size="14.00">2</text>
<polygon fill="none" stroke="black" points="0,-37.5 0,-61.25 105,-61.25 105,-37.5 0,-37.5"/>
<text xml:space="preserve" text-anchor="start" x="7.88" y="-43.95" font-family="arial" font-size="14.00">TPS Signal &#45; C</text>
<polyline fill="none" stroke="black" points="136.5,-61.25 105,-61.25 105,-37.5 136.5,-37.5"/>
<text xml:space="preserve" text-anchor="start" x="111.75" y="-43.95" font-family="arial" font-size="14.00">YE</text>
<polyline fill="none" stroke="black" points="136.5,-37.5 160.5,-37.5 160.5,-61.25 136.5,-61.25"/>
<polygon fill="#ffff00" stroke="none" points="144.5,-45.38 144.5,-53.38 152.5,-53.38 152.5,-45.38 144.5,-45.38"/>
<polygon fill="none" stroke="black" points="144.5,-45.38 144.5,-53.38 152.5,-53.38 152.5,-45.38 144.5,-45.38"/>
<polygon fill="none" stroke="black" points="160.5,-37.5 160.5,-61.25 180,-61.25 180,-37.5 160.5,-37.5"/>
<text xml:space="preserve" text-anchor="start" x="166.5" y="-43.95" font-family="arial" font-size="14.00">3</text>
<polygon fill="none" stroke="black" points="0,-13.75 0,-37.5 180,-37.5 180,-13.75 0,-13.75"/>
<text xml:space="preserve" text-anchor="start" x="18" y="-20.2" font-family="arial" font-size="14.00">Throttle Position Sensor</text>
</g>
<!-- TPS_Harness -->
<g id="node3" class="node">
<title>TPS_Harness</title>
<polygon fill="#ffffff" stroke="black" points="665.25,-188 324,-188 324,0 665.25,0 665.25,-188"/>
<polygon fill="none" stroke="black" points="324,-164.25 324,-188 665.25,-188 665.25,-164.25 324,-164.25"/>
<text xml:space="preserve" text-anchor="start" x="452.62" y="-170.7" font-family="arial" font-size="14.00">TPS_Harness</text>
<polygon fill="none" stroke="black" points="324,-140.5 324,-164.25 418.5,-164.25 418.5,-140.5 324,-140.5"/>
<text xml:space="preserve" text-anchor="start" x="364.12" y="-146.95" font-family="arial" font-size="14.00">3x</text>
<polygon fill="none" stroke="black" points="418.5,-140.5 418.5,-164.25 550.5,-164.25 550.5,-140.5 418.5,-140.5"/>
<text xml:space="preserve" text-anchor="start" x="458.62" y="-146.95" font-family="arial" font-size="14.00">22 AWG</text>
<polygon fill="none" stroke="black" points="550.5,-140.5 550.5,-164.25 665.25,-164.25 665.25,-140.5 550.5,-140.5"/>
<text xml:space="preserve" text-anchor="start" x="590.62" y="-146.95" font-family="arial" font-size="14.00">0.5 m</text>
<text xml:space="preserve" text-anchor="start" x="391.25" y="-125.2" font-family="arial" font-size="14.00"> </text>
<text xml:space="preserve" text-anchor="start" x="354.12" y="-105.45" font-family="arial" font-size="14.00">TPS:1:5V &#45; A</text>
<text xml:space="preserve" text-anchor="start" x="464.25" y="-105.45" font-family="arial" font-size="14.00"> &#160;&#160;&#160;&#160;1:RD &#160;&#160;&#160;</text>
<text xml:space="preserve" text-anchor="start" x="545.5" y="-105.45" font-family="arial" font-size="14.00">ECU:1:5V Supply</text>
<polygon fill="#000000" stroke="none" points="324,-99 324,-101 665.25,-101 665.25,-99 324,-99"/>
<polygon fill="#ff0000" stroke="none" points="324,-97 324,-99 665.25,-99 665.25,-97 324,-97"/>
<polygon fill="#000000" stroke="none" points="324,-95 324,-97 665.25,-97 665.25,-95 324,-95"/>
<text xml:space="preserve" text-anchor="start" x="326" y="-79.7" font-family="arial" font-size="14.00">TPS:2:Signal GND &#45; B</text>
<text xml:space="preserve" text-anchor="start" x="465" y="-79.7" font-family="arial" font-size="14.00"> &#160;&#160;&#160;&#160;2:YE &#160;&#160;&#160;</text>
<text xml:space="preserve" text-anchor="start" x="532.75" y="-79.7" font-family="arial" font-size="14.00">ECU:2:Signal Ground</text>
<polygon fill="#000000" stroke="none" points="324,-73.25 324,-75.25 665.25,-75.25 665.25,-73.25 324,-73.25"/>
<polygon fill="#ffff00" stroke="none" points="324,-71.25 324,-73.25 665.25,-73.25 665.25,-71.25 324,-71.25"/>
<polygon fill="#000000" stroke="none" points="324,-69.25 324,-71.25 665.25,-71.25 665.25,-69.25 324,-69.25"/>
<text xml:space="preserve" text-anchor="start" x="327.88" y="-53.95" font-family="arial" font-size="14.00">TPS:3:TPS Signal &#45; C</text>
<text xml:space="preserve" text-anchor="start" x="465" y="-53.95" font-family="arial" font-size="14.00"> &#160;&#160;&#160;&#160;3:BK &#160;&#160;&#160;</text>
<text xml:space="preserve" text-anchor="start" x="546.25" y="-53.95" font-family="arial" font-size="14.00">ECU:3:TPS Input</text>
<polygon fill="#000000" stroke="none" points="324,-47.5 324,-49.5 665.25,-49.5 665.25,-47.5 324,-47.5"/>
<polygon fill="#000000" stroke="none" points="324,-45.5 324,-47.5 665.25,-47.5 665.25,-45.5 324,-45.5"/>
<polygon fill="#000000" stroke="none" points="324,-43.5 324,-45.5 665.25,-45.5 665.25,-43.5 324,-43.5"/>
<text xml:space="preserve" text-anchor="start" x="391.25" y="-28.2" font-family="arial" font-size="14.00"> </text>
<polygon fill="none" stroke="black" points="324,0 324,-23.75 665.25,-23.75 665.25,0 324,0"/>
<text xml:space="preserve" text-anchor="start" x="433.5" y="-6.45" font-family="arial" font-size="14.00">TPS sensor harness</text>
</g>
<!-- TPS&#45;&#45;TPS_Harness -->
<g id="edge1" class="edge">
<title>TPS:e&#45;&#45;TPS_Harness:w</title>
<path fill="none" stroke="#000000" stroke-width="2" d="M180,-94.88C244.14,-94.88 260.14,-96 324,-96"/>
<path fill="none" stroke="#ff0000" stroke-width="2" d="M180,-96.88C244,-96.88 260,-98 324,-98"/>
<path fill="none" stroke="#000000" stroke-width="2" d="M180,-98.87C243.86,-98.87 259.86,-100 324,-100"/>
</g>
<!-- TPS&#45;&#45;TPS_Harness -->
<g id="edge3" class="edge">
<title>TPS:e&#45;&#45;TPS_Harness:w</title>
<path fill="none" stroke="#000000" stroke-width="2" d="M180,-71.13C243.89,-71.13 259.89,-70.25 324,-70.25"/>
<path fill="none" stroke="#ffff00" stroke-width="2" d="M180,-73.13C244,-73.12 260,-72.25 324,-72.25"/>
<path fill="none" stroke="#000000" stroke-width="2" d="M180,-75.12C244.11,-75.12 260.11,-74.25 324,-74.25"/>
</g>
<!-- TPS&#45;&#45;TPS_Harness -->
<g id="edge5" class="edge">
<title>TPS:e&#45;&#45;TPS_Harness:w</title>
<path fill="none" stroke="#000000" stroke-width="2" d="M180,-47.38C243.66,-47.41 259.63,-44.53 324,-44.5"/>
<path fill="none" stroke="#000000" stroke-width="2" d="M180,-49.37C244.01,-49.38 259.99,-46.5 324,-46.5"/>
<path fill="none" stroke="#000000" stroke-width="2" d="M180,-51.37C244.37,-51.34 260.34,-48.47 324,-48.5"/>
</g>
<!-- ECU -->
<g id="node2" class="node">
<title>ECU</title>
<polygon fill="#ffffff" stroke="black" points="996.75,-156.25 809.25,-156.25 809.25,-13.75 996.75,-13.75 996.75,-156.25"/>
<polygon fill="none" stroke="black" points="809.25,-132.5 809.25,-156.25 996.75,-156.25 996.75,-132.5 809.25,-132.5"/>
<text xml:space="preserve" text-anchor="start" x="888.75" y="-138.95" font-family="arial" font-size="14.00">ECU</text>
<polygon fill="none" stroke="black" points="809.25,-108.75 809.25,-132.5 879.5,-132.5 879.5,-108.75 809.25,-108.75"/>
<text xml:space="preserve" text-anchor="start" x="813.25" y="-115.2" font-family="arial" font-size="14.00">Connector</text>
<polygon fill="none" stroke="black" points="879.5,-108.75 879.5,-132.5 958.75,-132.5 958.75,-108.75 879.5,-108.75"/>
<text xml:space="preserve" text-anchor="start" x="883.5" y="-115.2" font-family="arial" font-size="14.00">ECU socket</text>
<polygon fill="none" stroke="black" points="958.75,-108.75 958.75,-132.5 996.75,-132.5 996.75,-108.75 958.75,-108.75"/>
<text xml:space="preserve" text-anchor="start" x="962.75" y="-115.2" font-family="arial" font-size="14.00">3&#45;pin</text>
<polygon fill="none" stroke="black" points="809.25,-85 809.25,-108.75 832.12,-108.75 832.12,-85 809.25,-85"/>
<text xml:space="preserve" text-anchor="start" x="816.94" y="-91.45" font-family="arial" font-size="14.00">1</text>
<polygon fill="none" stroke="black" points="832.12,-85 832.12,-108.75 934.5,-108.75 934.5,-85 832.12,-85"/>
<text xml:space="preserve" text-anchor="start" x="852.56" y="-91.45" font-family="arial" font-size="14.00">5V Supply</text>
<polyline fill="none" stroke="black" points="969.38,-108.75 934.5,-108.75 934.5,-85 969.38,-85"/>
<text xml:space="preserve" text-anchor="start" x="942.19" y="-91.45" font-family="arial" font-size="14.00">RD</text>
<polyline fill="none" stroke="black" points="969.38,-85 996.75,-85 996.75,-108.75 969.38,-108.75"/>
<polygon fill="#ff0000" stroke="none" points="979.06,-92.88 979.06,-100.88 987.06,-100.88 987.06,-92.88 979.06,-92.88"/>
<polygon fill="none" stroke="black" points="979.06,-92.88 979.06,-100.88 987.06,-100.88 987.06,-92.88 979.06,-92.88"/>
<polygon fill="none" stroke="black" points="809.25,-61.25 809.25,-85 832.12,-85 832.12,-61.25 809.25,-61.25"/>
<text xml:space="preserve" text-anchor="start" x="816.94" y="-67.7" font-family="arial" font-size="14.00">2</text>
<polygon fill="none" stroke="black" points="832.12,-61.25 832.12,-85 934.5,-85 934.5,-61.25 832.12,-61.25"/>
<text xml:space="preserve" text-anchor="start" x="839.81" y="-67.7" font-family="arial" font-size="14.00">Signal Ground</text>
<polyline fill="none" stroke="black" points="969.38,-85 934.5,-85 934.5,-61.25 969.38,-61.25"/>
<text xml:space="preserve" text-anchor="start" x="942.94" y="-67.7" font-family="arial" font-size="14.00">BK</text>
<polyline fill="none" stroke="black" points="969.38,-61.25 996.75,-61.25 996.75,-85 969.38,-85"/>
<polygon fill="#000000" stroke="none" points="979.06,-69.12 979.06,-77.12 987.06,-77.12 987.06,-69.12 979.06,-69.12"/>
<polygon fill="none" stroke="black" points="979.06,-69.12 979.06,-77.12 987.06,-77.12 987.06,-69.12 979.06,-69.12"/>
<polygon fill="none" stroke="black" points="809.25,-37.5 809.25,-61.25 832.12,-61.25 832.12,-37.5 809.25,-37.5"/>
<text xml:space="preserve" text-anchor="start" x="816.94" y="-43.95" font-family="arial" font-size="14.00">3</text>
<polygon fill="none" stroke="black" points="832.12,-37.5 832.12,-61.25 934.5,-61.25 934.5,-37.5 832.12,-37.5"/>
<text xml:space="preserve" text-anchor="start" x="853.31" y="-43.95" font-family="arial" font-size="14.00">TPS Input</text>
<polyline fill="none" stroke="black" points="969.38,-61.25 934.5,-61.25 934.5,-37.5 969.38,-37.5"/>
<text xml:space="preserve" text-anchor="start" x="942.94" y="-43.95" font-family="arial" font-size="14.00">YE</text>
<polyline fill="none" stroke="black" points="969.38,-37.5 996.75,-37.5 996.75,-61.25 969.38,-61.25"/>
<polygon fill="#ffff00" stroke="none" points="979.06,-45.38 979.06,-53.38 987.06,-53.38 987.06,-45.38 979.06,-45.38"/>
<polygon fill="none" stroke="black" points="979.06,-45.38 979.06,-53.38 987.06,-53.38 987.06,-45.38 979.06,-45.38"/>
<polygon fill="none" stroke="black" points="809.25,-13.75 809.25,-37.5 996.75,-37.5 996.75,-13.75 809.25,-13.75"/>
<text xml:space="preserve" text-anchor="start" x="844.5" y="-20.2" font-family="arial" font-size="14.00">Engine Control Unit</text>
</g>
<!-- TPS_Harness&#45;&#45;ECU -->
<g id="edge2" class="edge">
<title>TPS_Harness:e&#45;&#45;ECU:w</title>
<path fill="none" stroke="#000000" stroke-width="2" d="M665.25,-96C729.11,-96 745.11,-94.88 809.25,-94.88"/>
<path fill="none" stroke="#ff0000" stroke-width="2" d="M665.25,-98C729.25,-98 745.25,-96.88 809.25,-96.88"/>
<path fill="none" stroke="#000000" stroke-width="2" d="M665.25,-100C729.39,-100 745.39,-98.87 809.25,-98.87"/>
</g>
<!-- TPS_Harness&#45;&#45;ECU -->
<g id="edge4" class="edge">
<title>TPS_Harness:e&#45;&#45;ECU:w</title>
<path fill="none" stroke="#000000" stroke-width="2" d="M665.25,-70.25C729.36,-70.25 745.36,-71.13 809.25,-71.13"/>
<path fill="none" stroke="#ffff00" stroke-width="2" d="M665.25,-72.25C729.25,-72.25 745.25,-73.12 809.25,-73.13"/>
<path fill="none" stroke="#000000" stroke-width="2" d="M665.25,-74.25C729.14,-74.25 745.14,-75.12 809.25,-75.12"/>
</g>
<!-- TPS_Harness&#45;&#45;ECU -->
<g id="edge6" class="edge">
<title>TPS_Harness:e&#45;&#45;ECU:w</title>
<path fill="none" stroke="#000000" stroke-width="2" d="M665.25,-44.5C729.62,-44.53 745.59,-47.41 809.25,-47.38"/>
<path fill="none" stroke="#000000" stroke-width="2" d="M665.25,-46.5C729.26,-46.5 745.24,-49.38 809.25,-49.37"/>
<path fill="none" stroke="#000000" stroke-width="2" d="M665.25,-48.5C728.91,-48.47 744.88,-51.34 809.25,-51.37"/>
</g>
</g>
</svg>
